<svg width="14" height="15" viewBox="0 0 14 15" fill="none" xmlns="http://www.w3.org/2000/svg">
<g id="edit-02">
<path id="Icon" d="M10.5001 6.33343L8.16672 4.0001M1.45837 13.0418L3.43259 12.8224C3.67379 12.7956 3.79439 12.7822 3.90712 12.7457C4.00713 12.7133 4.1023 12.6676 4.19006 12.6097C4.28897 12.5445 4.37478 12.4587 4.54638 12.2871L12.2501 4.58343C12.8944 3.9391 12.8944 2.89443 12.2501 2.25009C11.6057 1.60576 10.5611 1.60576 9.91672 2.25009L2.21305 9.95375C2.04144 10.1254 1.95564 10.2112 1.89041 10.3101C1.83254 10.3978 1.7868 10.493 1.75442 10.593C1.71793 10.7057 1.70453 10.8263 1.67773 11.0675L1.45837 13.0418Z" stroke="white" stroke-opacity="0.6" stroke-width="1.2" stroke-linecap="round" stroke-linejoin="round"/>
</g>
</svg>
